<?xml version="1.0" encoding="UTF-8" standalone="no" ?>
<!DOCTYPE svg PUBLIC "-//W3C//DTD SVG 1.1//EN" "http://www.w3.org/Graphics/SVG/1.1/DTD/svg11.dtd">
<svg xmlns="http://www.w3.org/2000/svg" xmlns:xlink="http://www.w3.org/1999/xlink" version="1.1" width="1080" height="1080" viewBox="0 0 1080 1080" xml:space="preserve">
<desc>Created with Fabric.js 5.2.4</desc>
<defs>
</defs>
<rect x="0" y="0" width="100%" height="100%" fill="transparent"></rect>
<g transform="matrix(1 0 0 1 540 540)" id="d885082c-f8d9-42bb-80f5-94429f513949"  >
<rect style="stroke: none; stroke-width: 1; stroke-dasharray: none; stroke-linecap: butt; stroke-dashoffset: 0; stroke-linejoin: miter; stroke-miterlimit: 4; fill: rgb(255,255,255); fill-rule: nonzero; opacity: 1; visibility: hidden;" vector-effect="non-scaling-stroke"  x="-540" y="-540" rx="0" ry="0" width="1080" height="1080" />
</g>
<g transform="matrix(1 0 0 1 540 540)" id="3f8eeaf7-7213-4587-abe0-8198d0796686"  >
</g>
<g transform="matrix(14.9 0 0 14.9 545.69 545.69)" id="2e11dc6b-e739-4caf-a2a4-993ceafcb507"  >
<rect style="stroke: rgb(0,0,0); stroke-opacity: 0; stroke-width: 0; stroke-dasharray: none; stroke-linecap: butt; stroke-dashoffset: 0; stroke-linejoin: miter; stroke-miterlimit: 4; fill: rgb(255,255,255); fill-rule: nonzero; opacity: 1;" vector-effect="non-scaling-stroke"  x="-33.085" y="-33.085" rx="0" ry="0" width="66.17" height="66.17" />
</g>
<g transform="matrix(-0.18 0 0 -0.18 530.4 547.06)"  >
<path style="stroke: rgb(0,0,0); stroke-opacity: 0; stroke-width: 0; stroke-dasharray: none; stroke-linecap: butt; stroke-dashoffset: 0; stroke-linejoin: miter; stroke-miterlimit: 4; fill: rgb(146,0,0); fill-rule: nonzero; opacity: 1;" vector-effect="non-scaling-stroke"  transform=" translate(-3480, -3480)" d="M 0 3480 L 0 0 L 3480 0 L 6960 0 L 6960 3480 L 6960 6960 L 3480 6960 L 0 6960 L 0 3480 z M 3551 6111 C 3638 6089 3720 6044 3737 6009 C 3753 5978 3749 5952 3685 5725 C 3579 5349 3561 5243 3560 4990 C 3560 4831 3566 4805 3618 4742 C 3676 4672 3675 4676 3680 4525 L 3685 4385 L 3721 4367 C 3742 4357 3829 4331 3916 4309 C 4004 4287 4093 4260 4115 4250 C 4137 4239 4229 4157 4322 4066 C 4476 3915 4491 3896 4528 3819 C 4641 3582 4658 3438 4685 2507 C 4703 1894 4704 1610 4689 1556 C 4682 1529 4653 1490 4602 1435 C 4559 1390 4478 1301 4421 1236 C 4357 1163 4295 1103 4259 1080 C 4191 1036 4089 1008 3916 985 C 3754 964 3709 965 3676 991 C 3651 1011 3649 1018 3653 1064 C 3655 1092 3665 1148 3674 1188 C 3683 1228 3695 1339 3700 1433 C 3704 1528 3713 1677 3719 1765 C 3725 1853 3735 1990 3740 2070 C 3746 2150 3750 2249 3750 2290 C 3751 2331 3755 2399 3760 2440 C 3766 2481 3774 2605 3780 2715 C 3790 2936 3803 3001 3847 3042 C 3889 3082 3922 3090 4068 3100 C 4249 3112 4317 3127 4337 3156 C 4351 3178 4351 3181 4329 3200 C 4283 3239 4168 3302 4097 3327 C 4019 3354 3838 3370 3727 3360 C 3659 3353 3644 3339 3608 3250 C 3579 3177 3580 3112 3615 2970 C 3633 2898 3644 2827 3644 2778 C 3645 2706 3642 2696 3597 2607 C 3541 2497 3460 2400 3425 2400 C 3383 2400 3252 2574 3224 2666 C 3206 2727 3206 2818 3226 2905 C 3256 3040 3267 3136 3259 3194 C 3250 3261 3216 3336 3188 3351 C 3163 3365 2917 3364 2853 3350 C 2770 3332 2672 3290 2595 3239 C 2537 3201 2520 3185 2520 3167 C 2520 3146 2528 3141 2591 3126 C 2630 3117 2722 3105 2795 3100 C 3045 3083 3064 3057 3081 2705 C 3086 2595 3094 2471 3100 2430 C 3105 2389 3109 2321 3109 2280 C 3110 2203 3119 2039 3145 1665 C 3153 1550 3162 1408 3165 1350 C 3169 1292 3180 1208 3191 1162 C 3219 1040 3217 1014 3178 990 C 3159 978 3127 970 3103 970 C 3042 970 2836 997 2755 1016 C 2642 1043 2603 1068 2494 1186 C 2440 1244 2349 1340 2293 1399 C 2237 1457 2184 1522 2176 1542 C 2155 1590 2155 1785 2175 2510 C 2196 3249 2203 3368 2234 3524 C 2266 3679 2291 3756 2335 3836 C 2399 3951 2627 4152 2782 4231 C 2813 4247 2907 4280 2992 4306 C 3076 4331 3149 4356 3154 4360 C 3159 4365 3165 4436 3169 4517 L 3175 4666 L 3218 4736 C 3258 4803 3260 4810 3260 4884 C 3260 5017 3240 5250 3220 5360 C 3209 5418 3180 5542 3155 5635 C 3130 5729 3100 5847 3088 5897 L 3066 5990 L 3094 6019 C 3129 6055 3226 6100 3305 6116 C 3394 6134 3468 6132 3551 6111 z" stroke-linecap="round" />
</g>
</svg>